<svg width="33" height="33" viewBox="0 0 33 33" fill="none" xmlns="http://www.w3.org/2000/svg">
<path d="M11.8427 6.262H21.1573V3.54376C21.1573 3.09787 21.519 2.73656 21.9645 2.73656H25.5784C26.0239 2.73656 26.3853 3.09787 26.3853 3.54376V6.262H28.3988C30.7351 6.262 32.6434 8.1703 32.6434 10.5066V26.0189C32.6434 28.3551 30.7351 30.2634 28.3988 30.2634H4.60119C2.26493 30.2634 0.356628 28.3551 0.356628 26.0189V10.5066C0.356628 8.1703 2.26493 6.262 4.60119 6.262H6.61473V3.54376C6.61473 3.09787 6.97604 2.73656 7.42193 2.73656H11.0355C11.4814 2.73656 11.8427 3.09787 11.8427 3.54376V6.262ZM4.82102 15.2212H7.0688V17.469H4.82102V15.2212ZM4.82102 22.5145H7.0688V24.7619H4.82102V22.5145ZM21.6773 22.5145H23.925V24.7619H21.6773V22.5145ZM16.0584 22.5145H18.3062V24.7619H16.0584V22.5145ZM10.4399 22.5145H12.6873V24.7619H10.4399V22.5145ZM4.82102 18.8678H7.0688V21.1156H4.82102V18.8678ZM21.6773 18.8678H23.925V21.1156H21.6773V18.8678ZM16.0584 18.8678H18.3062V21.1156H16.0584V18.8678ZM10.4399 18.8678H12.6873V21.1156H10.4399V18.8678ZM21.6773 15.2212H23.925V17.469H21.6773V15.2212ZM16.0584 15.2212H18.3062V17.469H16.0584V15.2212ZM10.4399 15.2212H12.6873V17.469H10.4399V15.2212ZM1.97104 11.7702H25.8423C26.904 11.7702 26.904 13.3846 25.8423 13.3846H1.97104V26.0189C1.97104 27.4638 3.15632 28.649 4.60119 28.649H28.3988C29.8437 28.649 31.0289 27.4638 31.0289 26.0189V10.5066C31.0289 9.06169 29.8437 7.87641 28.3988 7.87641H26.3853V9.18447C26.3853 9.62997 26.0239 9.99168 25.5784 9.99168H21.9645C21.519 9.99168 21.1573 9.62997 21.1573 9.18447V7.87641H11.8427V9.18447C11.8427 9.62997 11.4814 9.99168 11.0355 9.99168H7.42193C6.97604 9.99168 6.61473 9.62997 6.61473 9.18447V7.87641H4.60119C3.15632 7.87641 1.97104 9.06169 1.97104 10.5066V11.7702ZM10.2283 4.35097H8.22914V8.37726H10.2283V4.35097ZM24.7712 4.35097H22.7717V8.37726H24.7712V4.35097Z" fill="black"/>
</svg>
