<?xml version="1.0" standalone="no"?>
<!DOCTYPE svg PUBLIC "-//W3C//DTD SVG 20010904//EN"
 "http://www.w3.org/TR/2001/REC-SVG-20010904/DTD/svg10.dtd">
<svg version="1.0" xmlns="http://www.w3.org/2000/svg"
 width="900.000000pt" height="800.000000pt" viewBox="0 0 900.000000 800.000000"
 preserveAspectRatio="xMidYMid meet">

<g transform="translate(0.000000,800.000000) scale(0.100000,-0.100000)"
fill="#000000" stroke="none">
<path d="M5630 6870 c-114 -20 -261 -101 -343 -189 -78 -83 -115 -182 -142
-372 -4 -29 -9 -36 -23 -33 -9 3 -26 -2 -37 -10 -18 -13 -20 -26 -20 -133 0
-98 4 -130 23 -185 13 -38 30 -72 38 -76 13 -7 13 -17 0 -79 -20 -99 -60 -177
-122 -241 -49 -51 -54 -54 -86 -46 -49 12 -216 7 -272 -8 -40 -11 -51 -18 -59
-41 -5 -16 -7 -31 -3 -34 3 -3 34 2 69 11 148 37 270 30 370 -20 26 -14 47
-26 47 -27 0 -2 -30 3 -67 11 -85 18 -220 10 -319 -18 -117 -32 -124 -37 -124
-84 0 -65 9 -83 48 -100 l37 -16 -32 3 c-32 3 -43 -6 -23 -18 6 -3 10 -23 10
-44 0 -20 6 -43 13 -50 10 -11 9 -12 -3 -5 -8 5 -34 9 -58 9 l-42 0 0 -75 c0
-94 13 -141 51 -184 16 -19 29 -40 29 -48 0 -23 -30 -58 -50 -58 -35 0 -29
-16 24 -57 30 -22 78 -72 109 -109 105 -131 147 -233 182 -444 23 -135 47
-221 114 -393 62 -161 133 -379 151 -464 14 -66 -1 -186 -40 -306 l-28 -88 51
-52 c29 -29 69 -61 90 -70 20 -10 37 -20 37 -23 0 -3 -27 -3 -60 0 -33 3 -87
9 -119 12 l-60 6 -21 -42 -21 -41 46 -85 c26 -47 103 -182 171 -301 69 -118
123 -217 121 -219 -2 -2 -16 14 -33 35 -49 64 -257 301 -264 301 -4 0 -29 -82
-56 -183 -45 -167 -49 -191 -49 -292 1 -160 33 -245 198 -528 41 -70 83 -154
93 -187 l18 -60 638 0 c351 0 638 4 638 8 0 12 -217 335 -291 434 -42 55 -51
73 -30 53 41 -38 146 -168 285 -352 l106 -143 59 0 59 0 -117 213 c-64 116
-164 302 -221 412 -159 308 -254 472 -362 625 -31 44 -33 48 -8 20 41 -47 303
-421 377 -540 33 -52 97 -162 143 -245 45 -82 125 -225 177 -317 l95 -168 49
0 49 0 -190 383 c-104 210 -229 459 -276 552 -80 156 -87 176 -92 241 -4 59 1
91 31 200 37 134 67 269 67 302 0 15 9 21 43 26 60 9 156 65 447 261 141 95
288 189 328 210 l72 38 -25 33 c-40 52 -73 132 -86 207 -11 66 -12 68 -38 63
-14 -3 -124 -17 -243 -31 -228 -26 -342 -49 -433 -90 l-54 -24 0 42 c0 37 -17
114 -35 158 -5 12 1 20 23 29 46 19 98 82 115 141 21 69 19 197 -3 283 -16 62
-17 75 -5 120 29 109 14 268 -36 370 -55 114 -165 208 -258 222 -36 5 -57 16
-92 48 -49 46 -174 147 -230 186 -93 64 -129 107 -130 157 0 22 2 23 73 17 65
-5 75 -4 107 18 20 14 50 51 70 88 20 36 60 97 89 135 61 79 74 106 108 225
31 110 42 137 72 183 24 37 30 66 61 291 13 90 -2 253 -29 331 -44 126 -125
213 -256 276 -126 62 -269 82 -405 59z m245 -51 c108 -12 187 -52 257 -127 90
-98 159 -254 157 -357 -1 -34 -4 -27 -19 41 -32 143 -103 251 -210 322 -150
101 -374 118 -566 43 -160 -62 -246 -170 -288 -363 -8 -35 -14 -53 -15 -41 -2
43 29 176 53 229 59 128 240 243 416 264 57 6 83 5 215 -11z m-730 -584 c32
-31 33 -56 2 -27 -13 12 -31 22 -40 22 -20 0 -31 17 -15 23 23 9 29 7 53 -18z
m1110 -197 c-8 -34 -29 -83 -44 -108 -29 -46 -54 -119 -66 -200 -11 -65 -45
-127 -113 -201 -32 -36 -73 -90 -90 -121 -38 -66 -59 -86 -100 -94 -40 -8 -41
1 -2 21 40 21 66 50 101 115 16 30 54 84 85 120 76 90 114 169 114 237 0 30
-4 63 -10 73 -8 15 -4 22 26 39 38 23 74 87 96 176 9 33 14 43 16 28 2 -12 -4
-51 -13 -85z m-391 -975 c64 -43 234 -189 265 -226 7 -9 25 -17 40 -17 14 0
45 -9 69 -20 128 -58 203 -176 232 -364 13 -86 3 -163 -31 -232 -17 -36 -19
-49 -10 -81 16 -56 13 -192 -4 -251 -28 -93 -89 -113 -213 -71 -34 11 -62 22
-62 24 0 2 27 4 60 4 72 -1 115 21 145 71 31 53 27 194 -8 322 -30 106 -96
277 -146 376 -17 34 -29 62 -27 62 20 0 145 -226 196 -354 22 -54 24 -57 38
-40 10 14 13 42 10 106 -4 78 -8 95 -46 170 -22 46 -56 101 -73 122 -37 44
-114 96 -142 96 -10 0 -54 38 -100 86 -92 97 -207 191 -314 254 -40 24 -73 44
-73 46 0 1 28 -7 63 -17 34 -11 93 -40 131 -66z m-55 -461 c178 -299 200 -590
50 -667 -16 -9 -68 -25 -116 -37 -78 -20 -112 -23 -303 -22 -118 1 -235 5
-260 11 -40 8 -31 10 85 16 186 10 443 60 535 105 125 61 112 320 -30 620 -27
56 -45 100 -40 97 4 -3 40 -58 79 -123z m447 -871 c59 -34 62 -38 75 -91 22
-98 14 -317 -18 -449 -8 -31 11 -20 39 23 l20 31 -5 -95 c-4 -72 -14 -121 -41
-205 -20 -60 -36 -113 -36 -117 0 -5 9 -8 21 -8 25 0 24 -5 -28 -245 -24 -112
-35 -187 -35 -250 -1 -70 -4 -85 -12 -71 -6 11 -41 54 -78 97 -38 42 -68 79
-68 80 0 2 14 4 31 5 16 1 35 6 41 12 18 18 77 246 66 257 -3 3 -24 2 -47 -4
-22 -5 -41 -8 -41 -6 0 1 21 42 46 89 52 97 74 168 74 239 l0 48 -36 -7 -35
-6 17 38 c61 138 89 331 65 446 -16 75 -61 164 -114 224 l-42 48 40 -23 c22
-13 68 -40 101 -60z m-169 -292 c10 -112 -22 -228 -77 -287 l-22 -23 20 -43
c40 -84 55 -157 54 -261 -1 -135 -16 -187 -18 -62 -3 152 -52 304 -119 367
l-24 22 55 54 c80 78 98 125 99 257 0 99 1 105 13 76 7 -18 16 -63 19 -100z
m724 95 c-196 -37 -325 -67 -379 -90 -30 -12 -33 -12 -30 4 7 35 231 92 433
111 166 15 161 10 -24 -25z m-52 -88 c-2 -2 -49 -21 -104 -41 -55 -20 -137
-57 -183 -81 l-83 -43 3 47 3 47 53 18 c84 28 328 69 311 53z"/>
<path d="M3620 6420 c-223 -47 -332 -108 -388 -214 -24 -46 -27 -62 -27 -156
0 -80 5 -122 22 -175 39 -127 57 -236 44 -280 -6 -22 -11 -53 -11 -70 0 -46
76 -287 114 -364 61 -121 67 -258 14 -352 l-20 -36 -117 -7 c-210 -12 -288
-41 -379 -141 -59 -64 -88 -133 -108 -254 -8 -49 -21 -92 -31 -103 -9 -10 -58
-50 -108 -88 -165 -128 -214 -185 -246 -291 -28 -92 -24 -222 9 -286 l22 -43
-40 -117 c-39 -112 -111 -253 -129 -253 -5 0 -38 14 -72 32 -87 43 -602 236
-613 230 -15 -8 33 -42 109 -78 39 -17 151 -60 250 -94 99 -34 221 -81 270
-105 86 -43 222 -141 211 -153 -3 -3 -14 1 -23 10 -38 32 -106 64 -318 150
-232 94 -445 196 -483 231 l-23 21 -45 -52 c-24 -28 -67 -66 -95 -84 -49 -31
-50 -33 -31 -48 11 -8 91 -65 178 -127 88 -62 211 -153 274 -202 154 -120 196
-144 341 -196 133 -48 179 -54 236 -30 55 23 171 149 233 254 30 51 67 107 81
124 l26 30 28 -59 c107 -231 145 -347 145 -447 0 -107 15 -179 64 -312 24 -66
68 -201 96 -299 29 -99 65 -211 81 -250 16 -39 29 -76 29 -83 0 -6 -18 -51
-41 -100 -62 -134 -78 -177 -113 -311 -33 -121 -33 -122 -11 -122 18 0 25 14
54 114 18 63 59 169 92 236 32 67 59 133 59 147 0 25 -126 434 -166 540 -44
113 -75 247 -83 358 -10 125 -43 227 -176 540 -39 93 -88 220 -108 280 l-37
110 -48 18 c-64 22 -136 87 -170 151 -24 45 -27 62 -27 146 0 88 3 100 34 163
26 52 53 85 109 135 41 37 109 100 152 140 l77 73 11 77 c23 159 66 245 158
314 72 55 120 68 274 75 100 4 140 10 152 21 32 27 58 117 59 205 1 80 2 81
12 38 21 -86 -20 -229 -89 -310 -30 -36 -98 -85 -132 -95 -21 -7 -20 -4 12 42
20 27 36 52 36 56 0 3 -18 6 -41 6 -40 0 -41 -1 -70 -62 -29 -62 -32 -56 -12
29 4 18 1 21 -17 16 -12 -3 -31 -25 -46 -54 -29 -58 -36 -62 -22 -13 5 20 7
39 3 42 -11 11 -114 -49 -147 -86 -41 -48 -86 -146 -95 -207 l-6 -49 69 60
c134 118 108 81 -50 -74 -233 -227 -274 -270 -316 -335 -89 -134 -82 -323 14
-416 17 -17 60 -46 95 -64 l62 -34 48 -110 c59 -137 105 -211 137 -219 22 -6
24 -11 24 -76 0 -39 7 -97 16 -131 22 -87 86 -208 138 -260 54 -55 61 -75 42
-119 -10 -24 -15 -28 -15 -13 -3 61 -53 155 -83 155 -16 0 -4 -95 21 -165 12
-33 26 -97 32 -142 5 -46 19 -109 31 -140 l21 -58 27 100 c29 111 59 183 94
229 13 17 35 54 49 81 14 28 37 64 51 80 l26 30 -9 -27 c-6 -15 -15 -35 -20
-45 -6 -10 -24 -61 -41 -113 -35 -111 -40 -226 -15 -356 8 -43 13 -79 11 -81
-6 -6 -46 130 -53 182 -10 75 -21 24 -22 -108 -1 -110 22 -252 40 -242 5 3 27
37 50 76 23 38 43 68 44 67 2 -2 -4 -39 -11 -83 -8 -44 -17 -150 -20 -235 l-7
-155 44 -12 c40 -11 129 -60 191 -105 22 -17 21 -17 -17 -1 -55 22 -246 31
-262 12 -14 -18 -90 -196 -119 -282 l-23 -67 616 4 615 4 54 78 c64 92 89 154
110 277 26 150 2 353 -55 465 l-20 40 107 144 c308 413 495 767 517 978 7 63
-7 174 -25 209 -5 9 -23 63 -40 121 -18 58 -61 180 -96 272 -65 171 -74 203
-119 438 -28 147 -50 205 -116 302 -103 152 -192 208 -439 278 -179 51 -220
74 -251 137 -40 84 -29 246 24 324 12 19 31 35 40 37 15 3 17 -2 10 -40 -14
-78 -8 -169 16 -224 58 -134 233 -227 392 -209 32 4 59 9 59 11 0 2 -11 19
-24 39 -35 51 -46 117 -48 301 l-3 161 22 -39 c29 -51 69 -101 59 -73 -25 64
-29 142 -13 235 13 78 26 114 70 200 83 161 106 301 72 435 -39 148 -101 227
-229 290 -62 31 -88 38 -139 39 -66 1 -117 -9 -117 -23 0 -20 59 -34 132 -32
91 3 133 -13 194 -75 34 -35 104 -155 104 -178 0 -4 -21 21 -48 56 -52 70
-125 124 -179 134 -38 7 -90 -6 -85 -22 1 -5 14 -43 29 -84 27 -73 28 -81 27
-275 0 -110 -5 -218 -10 -240 -9 -32 -10 -18 -6 71 8 192 -27 388 -91 508
-106 199 -341 285 -617 226z m205 -20 c117 -17 312 -129 364 -210 11 -18 1
-12 -34 18 -61 53 -187 116 -275 136 -70 17 -172 20 -205 6 -18 -7 -17 -8 10
-15 39 -10 128 -55 122 -61 -3 -3 -15 0 -27 6 -11 6 -48 16 -80 21 -121 19
-278 -29 -359 -110 -41 -41 -81 -108 -81 -136 0 -8 -5 -15 -11 -15 -15 0 -3
83 21 136 34 79 123 146 211 160 24 4 59 16 78 28 72 42 147 53 266 36z m-508
-633 c14 -81 15 -107 5 -143 -26 -97 -14 -162 68 -351 59 -135 86 -179 123
-200 17 -10 18 -12 5 -13 -24 0 -75 46 -104 95 -35 60 -114 298 -121 366 -3
31 -1 64 5 75 7 13 6 39 -4 84 -15 72 -18 189 -6 241 7 34 7 34 9 -11 1 -25
10 -89 20 -143z m774 -1032 c24 -9 100 -32 169 -51 69 -20 147 -47 174 -62 59
-32 144 -108 169 -150 14 -24 6 -20 -36 21 -29 29 -77 65 -107 81 -63 35 -188
76 -207 69 -7 -3 -35 -39 -63 -80 -27 -41 -50 -72 -50 -69 0 12 44 123 57 142
13 20 12 22 -14 29 -23 5 -31 2 -47 -22 -12 -15 -38 -46 -60 -68 -38 -40 -38
-40 -14 -5 25 35 58 94 58 104 0 3 -15 13 -32 22 -38 19 -85 60 -100 88 -8 14
-3 13 24 -7 19 -15 54 -34 79 -42z m-679 -406 c-48 -45 -122 -109 -166 -142
-160 -122 -232 -193 -254 -249 -32 -81 -42 -127 -43 -198 l-1 -65 -15 35 c-10
22 -16 66 -17 120 -2 187 73 267 504 538 36 22 68 41 72 41 5 1 -31 -36 -80
-80z m887 -676 c38 -103 83 -224 101 -268 32 -81 136 -294 171 -351 18 -30 18
-31 -5 -65 -59 -87 -171 -309 -229 -454 -72 -180 -162 -379 -214 -472 -41 -74
-54 -84 -19 -15 30 60 106 241 106 254 0 5 -28 40 -62 78 l-61 68 -90 -24
c-50 -14 -110 -33 -134 -44 -23 -10 -43 -18 -43 -16 0 7 120 86 167 110 l53
26 -46 57 c-91 111 -113 152 -124 233 -27 189 48 449 245 850 30 62 64 143 77
181 15 48 25 65 30 55 5 -8 39 -99 77 -203z m-1228 -318 c71 -75 109 -129 109
-154 0 -14 -179 182 -214 233 -35 52 -34 82 2 36 15 -19 61 -71 103 -115z"/>
<path d="M7661 4334 c-282 -61 -481 -309 -481 -599 0 -272 191 -518 455 -585
217 -56 429 2 585 159 300 302 211 800 -176 983 -117 55 -255 70 -383 42z
m272 -121 c104 -28 226 -123 283 -221 169 -289 16 -653 -311 -737 -198 -51
-421 38 -532 213 -195 304 -17 700 340 761 62 11 141 5 220 -16z"/>
<path d="M7673 4175 c-78 -21 -130 -51 -191 -108 -223 -212 -180 -565 88 -724
93 -56 252 -70 362 -32 188 63 308 231 308 431 0 290 -285 509 -567 433z m262
-119 c228 -104 273 -410 86 -579 -70 -63 -121 -81 -231 -82 -84 0 -102 3 -151
28 -67 32 -142 109 -172 175 -33 72 -31 207 4 282 47 101 125 168 228 197 66
19 170 9 236 -21z"/>
<path d="M7687 4026 c-171 -61 -249 -257 -170 -424 25 -52 95 -119 151 -144
66 -29 180 -29 242 1 73 34 117 77 151 146 29 60 31 70 27 148 -3 68 -9 93
-31 129 -35 61 -107 123 -164 142 -56 19 -154 20 -206 2z"/>
<path d="M950 4207 c-241 -82 -380 -323 -329 -569 79 -378 546 -524 823 -258
275 263 169 719 -192 830 -90 28 -216 27 -302 -3z m333 -110 c89 -44 146 -102
191 -197 28 -59 31 -74 30 -160 0 -126 -25 -188 -105 -274 -227 -243 -623
-128 -690 202 -33 158 58 349 202 423 78 40 120 49 211 46 76 -3 95 -7 161
-40z"/>
<path d="M1042 4099 c-113 -19 -215 -97 -268 -205 -26 -52 -29 -69 -29 -154 0
-82 4 -103 27 -152 132 -281 524 -288 664 -11 26 53 29 67 29 158 0 87 -3 107
-26 155 -15 30 -42 73 -62 96 -43 49 -137 101 -198 109 -24 4 -53 8 -64 9 -11
2 -44 -1 -73 -5z m164 -96 c70 -24 147 -103 168 -173 50 -168 -36 -323 -203
-365 -104 -27 -204 5 -278 89 -104 118 -90 299 31 402 72 62 183 81 282 47z"/>
<path d="M1055 3981 c-156 -40 -238 -200 -174 -341 44 -97 117 -144 224 -144
80 0 129 20 182 76 109 113 72 319 -70 387 -49 23 -120 33 -162 22z"/>
</g>
</svg>
