<svg width="33" height="33" viewBox="0 0 33 33" fill="none" xmlns="http://www.w3.org/2000/svg">
<path d="M16.5 29.9063C13.8485 29.9063 11.2565 29.12 9.05189 27.6469C6.84725 26.1738 5.12893 24.08 4.11425 21.6304C3.09956 19.1807 2.83407 16.4851 3.35135 13.8846C3.86864 11.284 5.14546 8.89525 7.02036 7.02036C8.89525 5.14546 11.284 3.86864 13.8846 3.35135C16.4851 2.83407 19.1807 3.09956 21.6304 4.11425C24.08 5.12893 26.1738 6.84725 27.6469 9.05189C29.12 11.2565 29.9063 13.8485 29.9063 16.5C29.9063 20.0556 28.4938 23.4655 25.9797 25.9797C23.4655 28.4938 20.0556 29.9063 16.5 29.9063ZM16.5 5.15626C14.2564 5.15626 12.0632 5.82156 10.1978 7.06802C8.33229 8.31449 6.87833 10.0861 6.01975 12.1589C5.16117 14.2317 4.93652 16.5126 5.37422 18.7131C5.81192 20.9135 6.89231 22.9348 8.47876 24.5212C10.0652 26.1077 12.0865 27.1881 14.287 27.6258C16.4874 28.0635 18.7683 27.8388 20.8411 26.9803C22.9139 26.1217 24.6855 24.6677 25.932 22.8023C27.1785 20.9368 27.8438 18.7436 27.8438 16.5C27.8438 13.4915 26.6486 10.6061 24.5212 8.47876C22.3939 6.3514 19.5086 5.15626 16.5 5.15626Z" fill="black"/>
<path d="M16.5 17.5313C15.4802 17.5313 14.4833 17.2288 13.6353 16.6623C12.7874 16.0957 12.1265 15.2904 11.7362 14.3482C11.346 13.406 11.2439 12.3693 11.4428 11.3691C11.6418 10.3689 12.1329 9.4501 12.854 8.72898C13.5751 8.00787 14.4939 7.51678 15.4941 7.31783C16.4943 7.11887 17.531 7.22098 18.4732 7.61125C19.4154 8.00151 20.2207 8.6624 20.7873 9.51034C21.3538 10.3583 21.6563 11.3552 21.6563 12.375C21.6563 13.7425 21.113 15.054 20.146 16.021C19.179 16.988 17.8675 17.5313 16.5 17.5313ZM16.5 9.28125C15.8881 9.28125 15.29 9.4627 14.7812 9.80264C14.2724 10.1426 13.8759 10.6258 13.6418 11.1911C13.4076 11.7564 13.3463 12.3784 13.4657 12.9786C13.5851 13.5787 13.8797 14.1299 14.3124 14.5626C14.7451 14.9953 15.2963 15.2899 15.8964 15.4093C16.4966 15.5287 17.1186 15.4674 17.6839 15.2333C18.2492 14.9991 18.7324 14.6026 19.0724 14.0938C19.4123 13.585 19.5938 12.9869 19.5938 12.375C19.5938 11.5545 19.2678 10.7676 18.6876 10.1874C18.1074 9.6072 17.3205 9.28125 16.5 9.28125Z" fill="black"/>
<path d="M26.3485 24.75C26.2053 24.751 26.0635 24.7221 25.9322 24.6653C25.8008 24.6085 25.6827 24.525 25.5853 24.42C24.4907 23.226 23.1602 22.2723 21.678 21.619C20.1958 20.9658 18.5942 20.6273 16.9744 20.625H16.0256C13.0064 20.6185 10.103 21.7872 7.93033 23.8837C7.72959 24.0494 7.47363 24.133 7.21381 24.1178C6.95399 24.1026 6.70952 23.9898 6.52944 23.8019C6.34936 23.614 6.24699 23.3649 6.24287 23.1047C6.23874 22.8444 6.33317 22.5923 6.50721 22.3987C9.06046 19.9309 12.4747 18.5549 16.0256 18.5625H16.9744C18.8783 18.5668 20.7608 18.9648 22.5035 19.7315C24.2462 20.4981 25.8116 21.6169 27.1013 23.0175C27.2375 23.1644 27.328 23.3478 27.3617 23.5454C27.3954 23.7429 27.3708 23.946 27.291 24.1297C27.2111 24.3135 27.0794 24.47 26.9121 24.5802C26.7447 24.6904 26.5488 24.7494 26.3485 24.75Z" fill="black"/>
</svg>
