<?xml version="1.0" encoding="UTF-8"?>
<svg xmlns="http://www.w3.org/2000/svg" xmlns:xlink="http://www.w3.org/1999/xlink" width="1000px" height="492px" viewBox="0 0 1000 492" version="1.1">
<defs>
<filter id="alpha" filterUnits="objectBoundingBox" x="0%" y="0%" width="100%" height="100%">
  <feColorMatrix type="matrix" in="SourceGraphic" values="0 0 0 0 1 0 0 0 0 1 0 0 0 0 1 0 0 0 1 0"/>
</filter>
<mask id="mask0">
  <g filter="url(#alpha)">
<rect x="0" y="0" width="1000" height="492" style="fill:rgb(0%,0%,0%);fill-opacity:0.988235;stroke:none;"/>
  </g>
</mask>
<clipPath id="clip1">
  <rect x="0" y="0" width="1000" height="492"/>
</clipPath>
<g id="surface5" clip-path="url(#clip1)">
<path style=" stroke:none;fill-rule:evenodd;fill:rgb(16.470588%,16.078431%,15.686275%);fill-opacity:1;" d="M -0.234375 -0.234375 C 96.382812 -0.234375 193.003906 -0.234375 289.621094 -0.234375 C 289.621094 36.558594 289.621094 73.347656 289.621094 110.140625 C 276.53125 110.140625 263.441406 110.140625 250.351562 110.140625 C 250.351562 85.976562 250.351562 61.8125 250.351562 37.648438 C 179.132812 37.648438 107.917969 37.648438 36.699219 37.648438 C 36.699219 108.421875 36.699219 179.199219 36.699219 249.976562 C 57.894531 249.976562 79.085938 249.976562 100.28125 249.976562 C 100.28125 263.070312 100.28125 276.164062 100.28125 289.261719 C 66.777344 289.261719 33.269531 289.261719 -0.234375 289.261719 C -0.234375 192.761719 -0.234375 96.265625 -0.234375 -0.234375 Z M -0.234375 -0.234375 "/>
</g>
<mask id="mask1">
  <g filter="url(#alpha)">
<rect x="0" y="0" width="1000" height="492" style="fill:rgb(0%,0%,0%);fill-opacity:0.988235;stroke:none;"/>
  </g>
</mask>
<clipPath id="clip2">
  <rect x="0" y="0" width="1000" height="492"/>
</clipPath>
<g id="surface8" clip-path="url(#clip2)">
<path style=" stroke:none;fill-rule:evenodd;fill:rgb(16.470588%,16.078431%,15.686275%);fill-opacity:1;" d="M 168.070312 135.859375 C 181.160156 135.859375 194.25 135.859375 207.339844 135.859375 C 207.339844 155.035156 207.339844 174.210938 207.339844 193.386719 C 221.675781 193.386719 236.011719 193.386719 250.351562 193.386719 C 250.351562 174.210938 250.351562 155.035156 250.351562 135.859375 C 263.285156 135.859375 276.21875 135.859375 289.152344 135.859375 C 289.152344 186.683594 289.152344 237.503906 289.152344 288.324219 C 276.21875 288.324219 263.285156 288.324219 250.351562 288.324219 C 250.351562 269.304688 250.351562 250.289062 250.351562 231.269531 C 236.011719 231.269531 221.675781 231.269531 207.339844 231.269531 C 207.339844 250.289062 207.339844 269.304688 207.339844 288.324219 C 194.25 288.324219 181.160156 288.324219 168.070312 288.324219 C 168.070312 237.503906 168.070312 186.683594 168.070312 135.859375 Z M 168.070312 135.859375 "/>
</g>
<mask id="mask2">
  <g filter="url(#alpha)">
<rect x="0" y="0" width="1000" height="492" style="fill:rgb(0%,0%,0%);fill-opacity:0.988235;stroke:none;"/>
  </g>
</mask>
<clipPath id="clip3">
  <rect x="0" y="0" width="1000" height="492"/>
</clipPath>
<g id="surface11" clip-path="url(#clip3)">
<path style=" stroke:none;fill-rule:evenodd;fill:rgb(16.470588%,16.078431%,15.686275%);fill-opacity:1;" d="M 352.265625 135.859375 C 364.113281 135.707031 375.957031 135.859375 387.796875 136.328125 C 405.832031 186.941406 423.910156 237.53125 442.027344 288.089844 C 428.160156 288.402344 414.289062 288.402344 400.421875 288.089844 C 397.105469 278.21875 393.832031 268.316406 390.601562 258.394531 C 377.199219 257.769531 363.800781 257.769531 350.398438 258.394531 C 347.417969 268.347656 344.300781 278.246094 341.046875 288.089844 C 327.175781 288.402344 313.308594 288.402344 299.4375 288.089844 C 317.097656 237.363281 334.703125 186.617188 352.265625 135.859375 Z M 370.03125 179.355469 C 370.703125 179.535156 371.089844 180 371.203125 180.757812 C 374.40625 194.828125 377.757812 208.859375 381.253906 222.851562 C 373.933594 223.316406 366.609375 223.472656 359.28125 223.316406 C 362.863281 208.664062 366.449219 194.007812 370.03125 179.355469 Z M 370.03125 179.355469 "/>
</g>
<mask id="mask3">
  <g filter="url(#alpha)">
<rect x="0" y="0" width="1000" height="492" style="fill:rgb(0%,0%,0%);fill-opacity:0.988235;stroke:none;"/>
  </g>
</mask>
<clipPath id="clip4">
  <rect x="0" y="0" width="1000" height="492"/>
</clipPath>
<g id="surface14" clip-path="url(#clip4)">
<path style=" stroke:none;fill-rule:evenodd;fill:rgb(16.470588%,16.078431%,15.686275%);fill-opacity:1;" d="M 435.015625 136.328125 C 448.917969 135.707031 462.867188 135.707031 476.859375 136.328125 C 486.296875 164.441406 494.871094 192.816406 502.570312 221.445312 C 504.1875 229.699219 505.75 237.960938 507.246094 246.234375 C 510.398438 230.195312 514.136719 214.296875 518.464844 198.53125 C 524.726562 177.710938 531.273438 156.976562 538.101562 136.328125 C 552.015625 135.785156 565.960938 135.707031 579.945312 136.09375 C 561.757812 186.691406 543.523438 237.28125 525.246094 287.855469 C 513.402344 288.480469 501.558594 288.480469 489.714844 287.855469 C 471.46875 237.300781 453.234375 186.792969 435.015625 136.328125 Z M 435.015625 136.328125 "/>
</g>
<mask id="mask4">
  <g filter="url(#alpha)">
<rect x="0" y="0" width="1000" height="492" style="fill:rgb(0%,0%,0%);fill-opacity:0.988235;stroke:none;"/>
  </g>
</mask>
<clipPath id="clip5">
  <rect x="0" y="0" width="1000" height="492"/>
</clipPath>
<g id="surface17" clip-path="url(#clip5)">
<path style=" stroke:none;fill-rule:evenodd;fill:rgb(16.470588%,16.078431%,15.686275%);fill-opacity:1;" d="M 626.695312 135.859375 C 638.542969 135.707031 650.386719 135.859375 662.226562 136.328125 C 680.257812 186.941406 698.335938 237.53125 716.457031 288.089844 C 702.429688 288.324219 688.40625 288.402344 674.378906 288.324219 C 671.261719 278.191406 668.148438 268.058594 665.03125 257.925781 C 651.625 257.769531 638.222656 257.925781 624.824219 258.394531 C 621.742188 268.3125 618.625 278.214844 615.472656 288.089844 C 601.605469 288.480469 587.734375 288.402344 573.867188 287.855469 C 591.570312 237.214844 609.183594 186.550781 626.695312 135.859375 Z M 644.460938 179.355469 C 644.96875 179.410156 645.277344 179.722656 645.394531 180.289062 C 648.789062 194.582031 652.21875 208.84375 655.679688 223.082031 C 648.359375 223.316406 641.03125 223.394531 633.707031 223.316406 C 637.292969 208.664062 640.875 194.007812 644.460938 179.355469 Z M 644.460938 179.355469 "/>
</g>
<mask id="mask5">
  <g filter="url(#alpha)">
<rect x="0" y="0" width="1000" height="492" style="fill:rgb(0%,0%,0%);fill-opacity:0.988235;stroke:none;"/>
  </g>
</mask>
<clipPath id="clip6">
  <rect x="0" y="0" width="1000" height="492"/>
</clipPath>
<g id="surface20" clip-path="url(#clip6)">
<path style=" stroke:none;fill-rule:evenodd;fill:rgb(16.470588%,16.078431%,15.686275%);fill-opacity:1;" d="M 725.804688 135.859375 C 738.226562 135.707031 750.617188 135.863281 762.972656 136.328125 C 774.386719 156.828125 785.917969 177.25 797.570312 197.59375 C 802.613281 208.777344 807.523438 220.003906 812.296875 231.269531 C 811.300781 223.28125 810.132812 215.171875 808.789062 206.949219 C 808.554688 183.253906 808.476562 159.558594 808.554688 135.859375 C 821.332031 135.859375 834.113281 135.859375 846.890625 135.859375 C 846.890625 186.683594 846.890625 237.503906 846.890625 288.324219 C 833.6875 288.476562 820.519531 288.324219 807.386719 287.855469 C 796.320312 268.527344 785.257812 249.195312 774.195312 229.863281 C 769.515625 219.25 764.839844 208.648438 760.167969 198.0625 C 761.261719 207.4375 762.664062 216.792969 764.375 226.125 C 764.609375 246.855469 764.6875 267.589844 764.609375 288.324219 C 751.671875 288.324219 738.742188 288.324219 725.804688 288.324219 C 725.804688 237.503906 725.804688 186.683594 725.804688 135.859375 Z M 725.804688 135.859375 "/>
</g>
<mask id="mask6">
  <g filter="url(#alpha)">
<rect x="0" y="0" width="1000" height="492" style="fill:rgb(0%,0%,0%);fill-opacity:0.988235;stroke:none;"/>
  </g>
</mask>
<clipPath id="clip7">
  <rect x="0" y="0" width="1000" height="492"/>
</clipPath>
<g id="surface23" clip-path="url(#clip7)">
<path style=" stroke:none;fill-rule:evenodd;fill:rgb(16.470588%,16.078431%,15.686275%);fill-opacity:1;" d="M 910.003906 135.859375 C 921.847656 135.859375 933.691406 135.859375 945.535156 135.859375 C 963.453125 186.683594 981.378906 237.503906 999.296875 288.324219 C 985.429688 288.324219 971.5625 288.324219 957.691406 288.324219 C 954.570312 278.191406 951.457031 268.058594 948.339844 257.925781 C 934.9375 257.769531 921.535156 257.925781 908.132812 258.394531 C 905.015625 268.214844 901.902344 278.035156 898.785156 287.855469 C 884.914062 288.480469 871.046875 288.480469 857.175781 287.855469 C 874.878906 237.214844 892.492188 186.546875 910.003906 135.859375 Z M 927.769531 179.355469 C 928.28125 179.410156 928.589844 179.722656 928.703125 180.289062 C 931.953125 194.613281 935.382812 208.878906 938.988281 223.082031 C 931.667969 223.316406 924.34375 223.394531 917.015625 223.316406 C 920.453125 208.628906 924.039062 193.972656 927.769531 179.355469 Z M 927.769531 179.355469 "/>
</g>
<mask id="mask7">
  <g filter="url(#alpha)">
<rect x="0" y="0" width="1000" height="492" style="fill:rgb(0%,0%,0%);fill-opacity:0.988235;stroke:none;"/>
  </g>
</mask>
<clipPath id="clip8">
  <rect x="0" y="0" width="1000" height="492"/>
</clipPath>
<g id="surface26" clip-path="url(#clip8)">
<path style=" stroke:none;fill-rule:evenodd;fill:rgb(16.862745%,16.078431%,15.686275%);fill-opacity:1;" d="M 346.65625 399.632812 C 332.007812 399.632812 317.359375 399.632812 302.710938 399.632812 C 302.710938 406.179688 302.710938 412.726562 302.710938 419.277344 C 317.359375 419.277344 332.007812 419.277344 346.65625 419.277344 C 346.65625 423.015625 346.65625 426.757812 346.65625 430.5 C 332.007812 430.5 317.359375 430.5 302.710938 430.5 C 302.789062 449.675781 302.710938 468.851562 302.476562 488.023438 C 301.417969 490.109375 299.78125 491.355469 297.570312 491.765625 C 275.441406 491.765625 253.3125 491.765625 231.183594 491.765625 C 228.792969 491.328125 227.15625 489.921875 226.273438 487.558594 C 226.039062 482.417969 225.960938 477.273438 226.039062 472.125 C 214.351562 472.203125 202.664062 472.125 190.976562 471.890625 C 189.109375 471.191406 187.9375 469.871094 187.472656 467.914062 C 187.238281 455.445312 187.160156 442.972656 187.238281 430.5 C 182.09375 430.578125 176.949219 430.5 171.808594 430.265625 C 169.875 429.578125 168.550781 428.25 167.835938 426.289062 C 167.523438 414.910156 167.523438 403.53125 167.835938 392.148438 C 168.582031 390 170.0625 388.675781 172.277344 388.175781 C 177.261719 387.941406 182.246094 387.863281 187.238281 387.941406 C 187.015625 374.972656 187.25 362.03125 187.9375 349.125 C 188.8125 348.089844 189.828125 347.234375 190.976562 346.550781 C 202.664062 346.316406 214.351562 346.238281 226.039062 346.316406 C 225.960938 341.328125 226.039062 336.335938 226.273438 331.351562 C 226.617188 329.296875 227.785156 327.96875 229.78125 327.375 C 253.351562 326.914062 276.882812 327.070312 300.375 327.84375 C 301.453125 328.609375 302.15625 329.625 302.476562 330.882812 C 302.710938 349.902344 302.789062 368.921875 302.710938 387.941406 C 317.359375 387.941406 332.007812 387.941406 346.65625 387.941406 C 346.65625 391.839844 346.65625 395.734375 346.65625 399.632812 Z M 346.65625 399.632812 "/>
</g>
<mask id="mask8">
  <g filter="url(#alpha)">
<rect x="0" y="0" width="1000" height="492" style="fill:rgb(0%,0%,0%);fill-opacity:0.992157;stroke:none;"/>
  </g>
</mask>
<clipPath id="clip9">
  <rect x="0" y="0" width="1000" height="492"/>
</clipPath>
<g id="surface29" clip-path="url(#clip9)">
<path style=" stroke:none;fill-rule:evenodd;fill:rgb(17.254902%,16.078431%,15.686275%);fill-opacity:1;" d="M 999.765625 391.683594 C 999.765625 403.375 999.765625 415.066406 999.765625 426.757812 C 999.074219 428.464844 997.824219 429.632812 996.027344 430.265625 C 990.730469 430.5 985.433594 430.578125 980.132812 430.5 C 980.355469 443.636719 980.121094 456.730469 979.429688 469.785156 C 978.710938 470.664062 977.847656 471.367188 976.859375 471.890625 C 965.171875 472.125 953.484375 472.203125 941.796875 472.125 C 941.988281 477.609375 941.753906 483.066406 941.09375 488.492188 C 939.953125 490.109375 938.472656 491.199219 936.652344 491.765625 C 914.367188 491.765625 892.085938 491.765625 869.800781 491.765625 C 868.636719 491.222656 867.464844 490.597656 866.292969 489.894531 C 865.695312 488.855469 865.226562 487.765625 864.890625 486.621094 C 864.65625 467.914062 864.578125 449.207031 864.65625 430.5 C 854.21875 430.5 843.773438 430.5 833.332031 430.5 C 833.179688 426.515625 833.339844 422.621094 833.800781 418.808594 C 844.160156 419.273438 854.601562 419.429688 865.125 419.277344 C 865.125 412.726562 865.125 406.179688 865.125 399.632812 C 854.683594 399.632812 844.242188 399.632812 833.800781 399.632812 C 833.339844 395.820312 833.179688 391.925781 833.332031 387.941406 C 843.773438 387.941406 854.21875 387.941406 864.65625 387.941406 C 864.578125 369.390625 864.65625 350.835938 864.890625 332.285156 C 865.082031 330.421875 865.941406 328.9375 867.460938 327.84375 C 890.953125 327.070312 914.484375 326.914062 938.054688 327.375 C 939.921875 328.308594 941.089844 329.789062 941.5625 331.820312 C 941.796875 336.648438 941.875 341.480469 941.796875 346.316406 C 953.328125 346.238281 964.863281 346.316406 976.390625 346.550781 C 978.179688 347.097656 979.351562 348.265625 979.898438 350.058594 C 980.132812 362.683594 980.210938 375.3125 980.132812 387.941406 C 985.277344 387.863281 990.421875 387.941406 995.558594 388.175781 C 997.554688 388.695312 998.957031 389.863281 999.765625 391.683594 Z M 999.765625 391.683594 "/>
</g>
<mask id="mask9">
  <g filter="url(#alpha)">
<rect x="0" y="0" width="1000" height="492" style="fill:rgb(0%,0%,0%);fill-opacity:0.988235;stroke:none;"/>
  </g>
</mask>
<clipPath id="clip10">
  <rect x="0" y="0" width="1000" height="492"/>
</clipPath>
<g id="surface32" clip-path="url(#clip10)">
<path style=" stroke:none;fill-rule:evenodd;fill:rgb(16.470588%,16.078431%,15.686275%);fill-opacity:1;" d="M 426.601562 327.609375 C 443.972656 325.835938 459.710938 329.964844 473.820312 340.003906 C 480.800781 345.820312 486.097656 352.914062 489.714844 361.285156 C 478.671875 366.765625 467.53125 372.066406 456.289062 377.183594 C 448.871094 364.792969 438.195312 360.820312 424.265625 365.257812 C 418.488281 367.605469 414.671875 371.734375 412.808594 377.652344 C 412.496094 398.386719 412.496094 419.121094 412.808594 439.855469 C 415.59375 447.6875 421.128906 452.285156 429.40625 453.648438 C 438.03125 455.15625 445.824219 453.285156 452.78125 448.039062 C 457.355469 442.914062 459.070312 436.910156 457.925781 430.03125 C 449.507812 430.03125 441.09375 430.03125 432.679688 430.03125 C 432.679688 418.808594 432.679688 407.582031 432.679688 396.359375 C 454.027344 396.359375 475.375 396.359375 496.726562 396.359375 C 496.808594 411.636719 496.726562 426.914062 496.492188 442.191406 C 494.117188 461.074219 484.535156 474.867188 467.742188 483.582031 C 446.90625 492.703125 425.867188 493.167969 404.628906 484.984375 C 386.859375 477.34375 376.1875 464.015625 372.605469 445 C 371.84375 421.9375 371.6875 398.863281 372.136719 375.78125 C 375.070312 354.605469 386.523438 340.183594 406.5 332.519531 C 413.066406 330.058594 419.765625 328.421875 426.601562 327.609375 Z M 426.601562 327.609375 "/>
</g>
<mask id="mask10">
  <g filter="url(#alpha)">
<rect x="0" y="0" width="1000" height="492" style="fill:rgb(0%,0%,0%);fill-opacity:0.992157;stroke:none;"/>
  </g>
</mask>
<clipPath id="clip11">
  <rect x="0" y="0" width="1000" height="492"/>
</clipPath>
<g id="surface35" clip-path="url(#clip11)">
<path style=" stroke:none;fill-rule:evenodd;fill:rgb(16.470588%,16.078431%,15.686275%);fill-opacity:1;" d="M 500 330.417969 C 515.660156 329.792969 531.402344 329.792969 547.21875 330.417969 C 556.445312 349.351562 565.796875 368.214844 575.269531 387.003906 C 584.742188 368.214844 594.089844 349.351562 603.320312 330.417969 C 619.214844 329.871094 635.109375 329.792969 651.003906 330.183594 C 632.476562 362.023438 614.011719 393.90625 595.605469 425.824219 C 595.371094 446.710938 595.292969 467.601562 595.371094 488.492188 C 581.96875 488.492188 568.570312 488.492188 555.164062 488.492188 C 555.246094 467.601562 555.164062 446.710938 554.933594 425.824219 C 536.726562 393.914062 518.414062 362.113281 500 330.417969 Z M 500 330.417969 "/>
</g>
<mask id="mask11">
  <g filter="url(#alpha)">
<rect x="0" y="0" width="1000" height="492" style="fill:rgb(0%,0%,0%);fill-opacity:0.988235;stroke:none;"/>
  </g>
</mask>
<clipPath id="clip12">
  <rect x="0" y="0" width="1000" height="492"/>
</clipPath>
<g id="surface38" clip-path="url(#clip12)">
<path style=" stroke:none;fill-rule:evenodd;fill:rgb(16.470588%,16.078431%,15.686275%);fill-opacity:1;" d="M 660.355469 329.949219 C 674.023438 329.792969 687.664062 329.949219 701.261719 330.417969 C 712.082031 355.863281 722.988281 381.277344 733.988281 406.648438 C 744.925781 381.21875 755.914062 355.808594 766.945312 330.417969 C 780.5 329.949219 794.058594 329.792969 807.621094 329.949219 C 807.621094 382.796875 807.621094 435.644531 807.621094 488.492188 C 794.0625 488.492188 780.503906 488.492188 766.945312 488.492188 C 766.222656 462.691406 767.15625 436.96875 769.753906 411.324219 C 769.367188 410.910156 768.902344 410.753906 768.351562 410.855469 C 761.648438 428.941406 754.945312 447.023438 748.246094 465.109375 C 738.785156 465.261719 729.355469 465.105469 719.960938 464.640625 C 713.007812 446.640625 705.914062 428.714844 698.691406 410.855469 C 699.136719 420.953125 699.835938 431.085938 700.792969 441.257812 C 701.027344 457 701.109375 472.746094 701.027344 488.492188 C 687.472656 488.492188 673.914062 488.492188 660.355469 488.492188 C 660.355469 435.644531 660.355469 382.796875 660.355469 329.949219 Z M 660.355469 329.949219 "/>
</g>
</defs>
<g id="surface1">
<use xlink:href="#surface5" mask="url(#mask0)"/>
<use xlink:href="#surface8" mask="url(#mask1)"/>
<use xlink:href="#surface11" mask="url(#mask2)"/>
<use xlink:href="#surface14" mask="url(#mask3)"/>
<use xlink:href="#surface17" mask="url(#mask4)"/>
<use xlink:href="#surface20" mask="url(#mask5)"/>
<use xlink:href="#surface23" mask="url(#mask6)"/>
<use xlink:href="#surface26" mask="url(#mask7)"/>
<use xlink:href="#surface29" mask="url(#mask8)"/>
<use xlink:href="#surface32" mask="url(#mask9)"/>
<use xlink:href="#surface35" mask="url(#mask10)"/>
<use xlink:href="#surface38" mask="url(#mask11)"/>
<path style=" stroke:none;fill-rule:evenodd;fill:rgb(80.392157%,12.156863%,14.117647%);fill-opacity:1;" d="M 291.492188 338.835938 C 273.570312 338.835938 255.648438 338.835938 237.726562 338.835938 C 237.882812 366.972656 237.726562 395.035156 237.261719 423.015625 C 237.261719 394.800781 237.261719 366.582031 237.261719 338.367188 C 255.417969 338.210938 273.496094 338.367188 291.492188 338.835938 Z M 291.492188 338.835938 "/>
<path style=" stroke:none;fill-rule:evenodd;fill:rgb(88.627451%,11.764706%,14.117647%);fill-opacity:1;" d="M 291.492188 338.835938 C 291.492188 385.914062 291.492188 432.996094 291.492188 480.074219 C 273.414062 480.074219 255.335938 480.074219 237.261719 480.074219 C 237.484375 468.027344 237.25 456.023438 236.558594 444.0625 C 233.054688 440.207031 229.785156 440.363281 226.742188 444.53125 C 226.507812 449.984375 226.429688 455.441406 226.507812 460.898438 C 217.3125 460.898438 208.121094 460.898438 198.925781 460.898438 C 198.925781 426.445312 198.925781 391.996094 198.925781 357.542969 C 208.121094 357.542969 217.3125 357.542969 226.507812 357.542969 C 226.429688 379.835938 226.507812 402.128906 226.742188 424.421875 C 228.964844 428.496094 232 429.195312 235.859375 426.523438 C 236.554688 425.445312 237.023438 424.277344 237.261719 423.015625 C 237.726562 395.035156 237.882812 366.972656 237.726562 338.835938 C 255.648438 338.835938 273.570312 338.835938 291.492188 338.835938 Z M 291.492188 338.835938 "/>
<path style=" stroke:none;fill-rule:evenodd;fill:rgb(88.627451%,11.764706%,14.117647%);fill-opacity:1;" d="M 941.328125 380.925781 C 941.796875 373.367188 941.949219 365.730469 941.796875 358.007812 C 950.832031 358.007812 959.875 358.007812 968.910156 358.007812 C 968.910156 392.304688 968.910156 426.601562 968.910156 460.898438 C 959.714844 460.898438 950.523438 460.898438 941.328125 460.898438 C 941.40625 442.347656 941.328125 423.796875 941.09375 405.246094 C 938.339844 400.914062 935.066406 400.445312 931.277344 403.84375 C 930.964844 404.464844 930.65625 405.089844 930.339844 405.714844 C 930.109375 430.5 930.027344 455.285156 930.109375 480.074219 C 912.1875 480.074219 894.265625 480.074219 876.34375 480.074219 C 876.34375 432.839844 876.34375 385.601562 876.34375 338.367188 C 894.265625 338.367188 912.1875 338.367188 930.109375 338.367188 C 930.027344 352.710938 930.109375 367.050781 930.339844 381.394531 C 932.023438 385.46875 934.910156 386.636719 938.988281 384.902344 C 940.191406 383.820312 940.972656 382.496094 941.328125 380.925781 Z M 941.328125 380.925781 "/>
<path style=" stroke:none;fill-rule:evenodd;fill:rgb(74.509804%,12.54902%,14.117647%);fill-opacity:1;" d="M 968.910156 358.007812 C 959.875 358.007812 950.832031 358.007812 941.796875 358.007812 C 941.949219 365.730469 941.796875 373.367188 941.328125 380.925781 C 941.328125 373.132812 941.328125 365.335938 941.328125 357.542969 C 950.601562 357.386719 959.800781 357.542969 968.910156 358.007812 Z M 968.910156 358.007812 "/>
<path style=" stroke:none;fill-rule:evenodd;fill:rgb(51.372549%,13.72549%,14.901961%);fill-opacity:1;" d="M 187.703125 399.632812 C 187.550781 399.632812 187.394531 399.632812 187.238281 399.632812 C 184.585938 399.632812 181.9375 399.632812 179.289062 399.632812 C 179.289062 406.023438 179.289062 412.417969 179.289062 418.808594 C 178.824219 412.34375 178.667969 405.796875 178.820312 399.164062 C 181.871094 399.015625 184.832031 399.171875 187.703125 399.632812 Z M 187.703125 399.632812 "/>
<path style=" stroke:none;fill-rule:evenodd;fill:rgb(88.627451%,11.764706%,13.72549%);fill-opacity:1;" d="M 187.238281 399.632812 C 187.238281 406.023438 187.238281 412.417969 187.238281 418.808594 C 184.585938 418.808594 181.9375 418.808594 179.289062 418.808594 C 179.289062 412.417969 179.289062 406.023438 179.289062 399.632812 C 181.9375 399.632812 184.585938 399.632812 187.238281 399.632812 Z M 187.238281 399.632812 "/>
<path style=" stroke:none;fill-rule:evenodd;fill:rgb(67.058824%,12.941176%,14.509804%);fill-opacity:1;" d="M 187.238281 399.632812 C 187.394531 399.632812 187.550781 399.632812 187.703125 399.632812 C 187.703125 406.179688 187.703125 412.726562 187.703125 419.277344 C 184.8125 419.425781 182.003906 419.269531 179.289062 418.808594 C 181.9375 418.808594 184.585938 418.808594 187.238281 418.808594 C 187.238281 412.417969 187.238281 406.023438 187.238281 399.632812 Z M 187.238281 399.632812 "/>
<path style=" stroke:none;fill-rule:evenodd;fill:rgb(87.843137%,11.764706%,14.117647%);fill-opacity:1;" d="M 346.65625 399.632812 C 346.65625 406.179688 346.65625 412.726562 346.65625 419.277344 C 332.007812 419.277344 317.359375 419.277344 302.710938 419.277344 C 302.710938 412.726562 302.710938 406.179688 302.710938 399.632812 C 317.359375 399.632812 332.007812 399.632812 346.65625 399.632812 Z M 346.65625 399.632812 "/>
<path style=" stroke:none;fill-rule:evenodd;fill:rgb(88.235294%,11.764706%,14.117647%);fill-opacity:1;" d="M 833.800781 399.632812 C 844.242188 399.632812 854.683594 399.632812 865.125 399.632812 C 865.125 406.179688 865.125 412.726562 865.125 419.277344 C 854.601562 419.429688 844.160156 419.273438 833.800781 418.808594 C 833.800781 412.417969 833.800781 406.023438 833.800781 399.632812 Z M 833.800781 399.632812 "/>
<path style=" stroke:none;fill-rule:evenodd;fill:rgb(88.235294%,11.764706%,14.117647%);fill-opacity:1;" d="M 980.132812 399.632812 C 982.9375 399.632812 985.742188 399.632812 988.546875 399.632812 C 988.546875 406.179688 988.546875 412.726562 988.546875 419.277344 C 985.742188 419.277344 982.9375 419.277344 980.132812 419.277344 C 980.132812 412.726562 980.132812 406.179688 980.132812 399.632812 Z M 980.132812 399.632812 "/>
</g>
</svg>
